<svg xmlns="http://www.w3.org/2000/svg" xmlns:xlink="http://www.w3.org/1999/xlink" id="processonSvg1000" viewBox="240.5 -1.5 1219.0 596.0" width="1219.0" height="596.0"><defs id="ProcessOnDefs1001"><marker id="ProcessOnMarker1067" markerUnits="userSpaceOnUse" orient="auto" markerWidth="16.23606797749979" markerHeight="10.550836550532098" viewBox="-1.0 -1.3763819204711736 16.23606797749979 10.550836550532098" refX="-1.0" refY="3.8990363547948754"><path id="ProcessOnPath1068" d="M12.0 3.8990363547948754L0.0 7.798072709589751V0.0Z" stroke="#323232" stroke-width="2.0" fill="#323232" transform="matrix(1.0,0.0,0.0,1.0,0.0,0.0)"/></marker><marker id="ProcessOnMarker1110" markerUnits="userSpaceOnUse" orient="auto" markerWidth="16.23606797749979" markerHeight="10.550836550532098" viewBox="-1.0 -1.3763819204711736 16.23606797749979 10.550836550532098" refX="-1.0" refY="3.8990363547948754"><path id="ProcessOnPath1111" d="M12.0 3.8990363547948754L0.0 7.798072709589751V0.0Z" stroke="#323232" stroke-width="2.0" fill="#323232" transform="matrix(1.0,0.0,0.0,1.0,0.0,0.0)"/></marker><marker id="ProcessOnMarker1114" markerUnits="userSpaceOnUse" orient="auto" markerWidth="16.23606797749979" markerHeight="10.550836550532098" viewBox="-1.0 -1.3763819204711736 16.23606797749979 10.550836550532098" refX="-1.0" refY="3.8990363547948754"><path id="ProcessOnPath1115" d="M12.0 3.8990363547948754L0.0 7.798072709589751V0.0Z" stroke="#323232" stroke-width="2.0" fill="#323232" transform="matrix(1.0,0.0,0.0,1.0,0.0,0.0)"/></marker><marker id="ProcessOnMarker1118" markerUnits="userSpaceOnUse" orient="auto" markerWidth="16.23606797749979" markerHeight="10.550836550532098" viewBox="-1.0 -1.3763819204711736 16.23606797749979 10.550836550532098" refX="-1.0" refY="3.8990363547948754"><path id="ProcessOnPath1119" d="M12.0 3.8990363547948754L0.0 7.798072709589751V0.0Z" stroke="#323232" stroke-width="2.0" fill="#323232" transform="matrix(1.0,0.0,0.0,1.0,0.0,0.0)"/></marker><marker id="ProcessOnMarker1122" markerUnits="userSpaceOnUse" orient="auto" markerWidth="16.23606797749979" markerHeight="10.550836550532098" viewBox="-1.0 -1.3763819204711736 16.23606797749979 10.550836550532098" refX="-1.0" refY="3.8990363547948754"><path id="ProcessOnPath1123" d="M12.0 3.8990363547948754L0.0 7.798072709589751V0.0Z" stroke="#323232" stroke-width="2.0" fill="#323232" transform="matrix(1.0,0.0,0.0,1.0,0.0,0.0)"/></marker><marker id="ProcessOnMarker1130" markerUnits="userSpaceOnUse" orient="auto" markerWidth="16.23606797749979" markerHeight="10.550836550532098" viewBox="-1.0 -1.3763819204711736 16.23606797749979 10.550836550532098" refX="-1.0" refY="3.8990363547948754"><path id="ProcessOnPath1131" d="M12.0 3.8990363547948754L0.0 7.798072709589751V0.0Z" stroke="#323232" stroke-width="2.0" fill="#323232" transform="matrix(1.0,0.0,0.0,1.0,0.0,0.0)"/></marker><marker id="ProcessOnMarker1174" markerUnits="userSpaceOnUse" orient="auto" markerWidth="16.23606797749979" markerHeight="10.550836550532098" viewBox="-1.0 -1.3763819204711736 16.23606797749979 10.550836550532098" refX="-1.0" refY="3.8990363547948754"><path id="ProcessOnPath1175" d="M12.0 3.8990363547948754L0.0 7.798072709589751V0.0Z" stroke="#323232" stroke-width="2.0" fill="#323232" transform="matrix(1.0,0.0,0.0,1.0,0.0,0.0)"/></marker><marker id="ProcessOnMarker1186" markerUnits="userSpaceOnUse" orient="auto" markerWidth="16.23606797749979" markerHeight="10.550836550532098" viewBox="-1.0 -1.3763819204711736 16.23606797749979 10.550836550532098" refX="-1.0" refY="3.8990363547948754"><path id="ProcessOnPath1187" d="M12.0 3.8990363547948754L0.0 7.798072709589751V0.0Z" stroke="#323232" stroke-width="2.0" fill="#323232" transform="matrix(1.0,0.0,0.0,1.0,0.0,0.0)"/></marker><marker id="ProcessOnMarker1190" markerUnits="userSpaceOnUse" orient="auto" markerWidth="16.23606797749979" markerHeight="10.550836550532098" viewBox="-1.0 -1.3763819204711736 16.23606797749979 10.550836550532098" refX="15.23606797749979" refY="3.8990363547948754"><path id="ProcessOnPath1191" d="M12.0 3.8990363547948754L0.0 7.798072709589751V0.0Z" stroke="#323232" stroke-width="2.0" fill="#323232" transform="matrix(-1.0,1.2246467991473532E-16,-1.2246467991473532E-16,-1.0,14.23606797749979,7.798072709589751)"/></marker><marker id="ProcessOnMarker1203" markerUnits="userSpaceOnUse" orient="auto" markerWidth="16.23606797749979" markerHeight="10.550836550532098" viewBox="-1.0 -1.3763819204711736 16.23606797749979 10.550836550532098" refX="-1.0" refY="3.8990363547948754"><path id="ProcessOnPath1204" d="M12.0 3.8990363547948754L0.0 7.798072709589751V0.0Z" stroke="#323232" stroke-width="2.0" fill="#323232" transform="matrix(1.0,0.0,0.0,1.0,0.0,0.0)"/></marker></defs><g id="ProcessOnG1002"><path id="ProcessOnPath1003" d="M240.5 -1.5H1459.5V594.5H240.5V-1.5Z" fill="none"/><g id="ProcessOnG1004"><g id="ProcessOnG1005" transform="matrix(1.0,0.0,0.0,1.0,260.5,141.5)" opacity="1.0"><path id="ProcessOnPath1006" d="M0.0 0.0L129.0 0.0L129.0 188.0L0.0 188.0Z" stroke="#323232" stroke-width="2.0" stroke-dasharray="10.0 4.0" opacity="1.0" fill="#ffffff"/></g><g id="ProcessOnG1007" transform="matrix(1.0,0.0,0.0,1.0,576.5,80.5)" opacity="1.0"><path id="ProcessOnPath1008" d="M0.0 0.0L141.0 0.0L141.0 232.0L0.0 232.0Z" stroke="#323232" stroke-width="2.0" stroke-dasharray="10.0 4.0" opacity="1.0" fill="#ffffff"/></g><g id="ProcessOnG1009" transform="matrix(1.0,0.0,0.0,1.0,799.0,103.0)" opacity="1.0"><path id="ProcessOnPath1010" d="M0.0 0.0L140.0 0.0L140.0 165.5L0.0 165.5Z" stroke="#323232" stroke-width="2.0" stroke-dasharray="10.0 4.0" opacity="1.0" fill="#ffffff"/></g><g id="ProcessOnG1011" transform="matrix(1.0,0.0,0.0,1.0,995.5,29.5)" opacity="1.0"><path id="ProcessOnPath1012" d="M0.0 0.0L122.0 0.0L122.0 86.0L0.0 86.0Z" stroke="#323232" stroke-width="2.0" stroke-dasharray="10.0 4.0" opacity="1.0" fill="#ffffff"/></g><g id="ProcessOnG1013" transform="matrix(1.0,0.0,0.0,1.0,1013.5,49.5)" opacity="1.0"><path id="ProcessOnPath1014" d="M0.0 0.0L43.0 0.0L43.0 24.0L0.0 24.0Z" stroke="#323232" stroke-width="2.0" stroke-dasharray="none" opacity="1.0" fill="#ffffff"/><g id="ProcessOnG1015" transform="matrix(1.0,0.0,0.0,1.0,10.0,3.875)"><text id="ProcessOnText1016" fill="#000000" font-size="13" x="10.5" y="13.325" font-family="微软雅黑" font-weight="normal" font-style="normal" text-decoration="none" family="微软雅黑" text-anchor="middle" size="13">k</text></g></g><g id="ProcessOnG1017" transform="matrix(1.0,0.0,0.0,1.0,1056.5,49.5)" opacity="1.0"><path id="ProcessOnPath1018" d="M0.0 0.0L43.0 0.0L43.0 24.0L0.0 24.0Z" stroke="#323232" stroke-width="2.0" stroke-dasharray="none" opacity="1.0" fill="#ffffff"/><g id="ProcessOnG1019" transform="matrix(1.0,0.0,0.0,1.0,10.0,3.875)"><text id="ProcessOnText1020" fill="#000000" font-size="13" x="10.5" y="13.325" font-family="微软雅黑" font-weight="normal" font-style="normal" text-decoration="none" family="微软雅黑" text-anchor="middle" size="13">v</text></g></g><g id="ProcessOnG1021" transform="matrix(1.0,0.0,0.0,1.0,1013.5,73.5)" opacity="1.0"><path id="ProcessOnPath1022" d="M0.0 0.0L86.0 0.0L86.0 24.0L0.0 24.0Z" stroke="#323232" stroke-width="2.0" stroke-dasharray="none" opacity="1.0" fill="#ffffff"/><g id="ProcessOnG1023" transform="matrix(1.0,0.0,0.0,1.0,10.0,3.875)"><text id="ProcessOnText1024" fill="#000000" font-size="13" x="32.0" y="13.325" font-family="微软雅黑" font-weight="normal" font-style="normal" text-decoration="none" family="微软雅黑" text-anchor="middle" size="13">next</text></g></g><g id="ProcessOnG1025" transform="matrix(1.0,0.0,0.0,1.0,945.5,18.5)" opacity="1.0"><path id="ProcessOnPath1026" d="M0.0 0.0L160.0 0.0L160.0 40.0L0.0 40.0Z" stroke="none" stroke-width="0.0" stroke-dasharray="none" opacity="1.0" fill="none"/><g id="ProcessOnG1027" transform="matrix(1.0,0.0,0.0,1.0,0.0,11.875)"><text id="ProcessOnText1028" fill="#000000" font-size="13" x="79.0" y="13.325" font-family="微软雅黑" font-weight="normal" font-style="normal" text-decoration="none" family="微软雅黑" text-anchor="middle" size="13">dictEntry</text></g></g><g id="ProcessOnG1029" transform="matrix(1.0,0.0,0.0,1.0,1166.5,29.5)" opacity="1.0"><path id="ProcessOnPath1030" d="M0.0 0.0L122.0 0.0L122.0 86.0L0.0 86.0Z" stroke="#323232" stroke-width="2.0" stroke-dasharray="10.0 4.0" opacity="1.0" fill="#ffffff"/></g><g id="ProcessOnG1031" transform="matrix(1.0,0.0,0.0,1.0,1184.5,49.5)" opacity="1.0"><path id="ProcessOnPath1032" d="M0.0 0.0L43.0 0.0L43.0 24.0L0.0 24.0Z" stroke="#323232" stroke-width="2.0" stroke-dasharray="none" opacity="1.0" fill="#ffffff"/><g id="ProcessOnG1033" transform="matrix(1.0,0.0,0.0,1.0,10.0,3.875)"><text id="ProcessOnText1034" fill="#000000" font-size="13" x="10.5" y="13.325" font-family="微软雅黑" font-weight="normal" font-style="normal" text-decoration="none" family="微软雅黑" text-anchor="middle" size="13">k</text></g></g><g id="ProcessOnG1035" transform="matrix(1.0,0.0,0.0,1.0,1227.5,49.5)" opacity="1.0"><path id="ProcessOnPath1036" d="M0.0 0.0L43.0 0.0L43.0 24.0L0.0 24.0Z" stroke="#323232" stroke-width="2.0" stroke-dasharray="none" opacity="1.0" fill="#ffffff"/><g id="ProcessOnG1037" transform="matrix(1.0,0.0,0.0,1.0,10.0,3.875)"><text id="ProcessOnText1038" fill="#000000" font-size="13" x="10.5" y="13.325" font-family="微软雅黑" font-weight="normal" font-style="normal" text-decoration="none" family="微软雅黑" text-anchor="middle" size="13">v</text></g></g><g id="ProcessOnG1039" transform="matrix(1.0,0.0,0.0,1.0,1184.5,73.5)" opacity="1.0"><path id="ProcessOnPath1040" d="M0.0 0.0L86.0 0.0L86.0 24.0L0.0 24.0Z" stroke="#323232" stroke-width="2.0" stroke-dasharray="none" opacity="1.0" fill="#ffffff"/><g id="ProcessOnG1041" transform="matrix(1.0,0.0,0.0,1.0,10.0,3.875)"><text id="ProcessOnText1042" fill="#000000" font-size="13" x="32.0" y="13.325" font-family="微软雅黑" font-weight="normal" font-style="normal" text-decoration="none" family="微软雅黑" text-anchor="middle" size="13">next</text></g></g><g id="ProcessOnG1043" transform="matrix(1.0,0.0,0.0,1.0,1116.5,18.5)" opacity="1.0"><path id="ProcessOnPath1044" d="M0.0 0.0L160.0 0.0L160.0 40.0L0.0 40.0Z" stroke="none" stroke-width="0.0" stroke-dasharray="none" opacity="1.0" fill="none"/><g id="ProcessOnG1045" transform="matrix(1.0,0.0,0.0,1.0,0.0,11.875)"><text id="ProcessOnText1046" fill="#000000" font-size="13" x="79.0" y="13.325" font-family="微软雅黑" font-weight="normal" font-style="normal" text-decoration="none" family="微软雅黑" text-anchor="middle" size="13">dictEntry</text></g></g><g id="ProcessOnG1047" transform="matrix(1.0,0.0,0.0,1.0,993.5,152.5)" opacity="1.0"><path id="ProcessOnPath1048" d="M0.0 0.0L122.0 0.0L122.0 86.0L0.0 86.0Z" stroke="#323232" stroke-width="2.0" stroke-dasharray="10.0 4.0" opacity="1.0" fill="#ffffff"/></g><g id="ProcessOnG1049" transform="matrix(1.0,0.0,0.0,1.0,1011.5,172.5)" opacity="1.0"><path id="ProcessOnPath1050" d="M0.0 0.0L43.0 0.0L43.0 24.0L0.0 24.0Z" stroke="#323232" stroke-width="2.0" stroke-dasharray="none" opacity="1.0" fill="#ffffff"/><g id="ProcessOnG1051" transform="matrix(1.0,0.0,0.0,1.0,10.0,3.875)"><text id="ProcessOnText1052" fill="#000000" font-size="13" x="10.5" y="13.325" font-family="微软雅黑" font-weight="normal" font-style="normal" text-decoration="none" family="微软雅黑" text-anchor="middle" size="13">k</text></g></g><g id="ProcessOnG1053" transform="matrix(1.0,0.0,0.0,1.0,1054.5,172.5)" opacity="1.0"><path id="ProcessOnPath1054" d="M0.0 0.0L43.0 0.0L43.0 24.0L0.0 24.0Z" stroke="#323232" stroke-width="2.0" stroke-dasharray="none" opacity="1.0" fill="#ffffff"/><g id="ProcessOnG1055" transform="matrix(1.0,0.0,0.0,1.0,10.0,3.875)"><text id="ProcessOnText1056" fill="#000000" font-size="13" x="10.5" y="13.325" font-family="微软雅黑" font-weight="normal" font-style="normal" text-decoration="none" family="微软雅黑" text-anchor="middle" size="13">v</text></g></g><g id="ProcessOnG1057" transform="matrix(1.0,0.0,0.0,1.0,1011.5,196.5)" opacity="1.0"><path id="ProcessOnPath1058" d="M0.0 0.0L86.0 0.0L86.0 24.0L0.0 24.0Z" stroke="#323232" stroke-width="2.0" stroke-dasharray="none" opacity="1.0" fill="#ffffff"/><g id="ProcessOnG1059" transform="matrix(1.0,0.0,0.0,1.0,10.0,3.875)"><text id="ProcessOnText1060" fill="#000000" font-size="13" x="32.0" y="13.325" font-family="微软雅黑" font-weight="normal" font-style="normal" text-decoration="none" family="微软雅黑" text-anchor="middle" size="13">next</text></g></g><g id="ProcessOnG1061" transform="matrix(1.0,0.0,0.0,1.0,943.5,141.5)" opacity="1.0"><path id="ProcessOnPath1062" d="M0.0 0.0L160.0 0.0L160.0 40.0L0.0 40.0Z" stroke="none" stroke-width="0.0" stroke-dasharray="none" opacity="1.0" fill="none"/><g id="ProcessOnG1063" transform="matrix(1.0,0.0,0.0,1.0,0.0,11.875)"><text id="ProcessOnText1064" fill="#000000" font-size="13" x="79.0" y="13.325" font-family="微软雅黑" font-weight="normal" font-style="normal" text-decoration="none" family="微软雅黑" text-anchor="middle" size="13">dictEntry</text></g></g><g id="ProcessOnG1065"><path id="ProcessOnPath1066" d="M1099.5 85.5C1126.7998168492024 85.5 1139.2001831507976 72.5 1151.2639320225003 72.5" stroke="#323232" stroke-width="2.0" stroke-dasharray="none" fill="none" marker-end="url(#ProcessOnMarker1067)"/></g><g id="ProcessOnG1069" transform="matrix(1.0,0.0,0.0,1.0,598.5,134.5)" opacity="1.0"><path id="ProcessOnPath1070" d="M0.0 0.0L97.0 0.0L97.0 54.0L0.0 54.0Z" stroke="#323232" stroke-width="2.0" stroke-dasharray="none" opacity="1.0" fill="#ffffff"/><g id="ProcessOnG1071" transform="matrix(1.0,0.0,0.0,1.0,10.0,10.75)"><text id="ProcessOnText1072" fill="#000000" font-size="13" x="37.5" y="13.325" font-family="微软雅黑" font-weight="normal" font-style="normal" text-decoration="none" family="微软雅黑" text-anchor="middle" size="13">size</text><text id="ProcessOnText1073" fill="#000000" font-size="13" x="37.5" y="29.575" font-family="微软雅黑" font-weight="normal" font-style="normal" text-decoration="none" family="微软雅黑" text-anchor="middle" size="13">4</text></g></g><g id="ProcessOnG1074" transform="matrix(1.0,0.0,0.0,1.0,598.5,188.5)" opacity="1.0"><path id="ProcessOnPath1075" d="M0.0 0.0L97.0 0.0L97.0 54.0L0.0 54.0Z" stroke="#323232" stroke-width="2.0" stroke-dasharray="none" opacity="1.0" fill="#ffffff"/><g id="ProcessOnG1076" transform="matrix(1.0,0.0,0.0,1.0,10.0,10.75)"><text id="ProcessOnText1077" fill="#000000" font-size="13" x="37.5" y="13.325" font-family="微软雅黑" font-weight="normal" font-style="normal" text-decoration="none" family="微软雅黑" text-anchor="middle" size="13">sizemask</text><text id="ProcessOnText1078" fill="#000000" font-size="13" x="37.5" y="29.575" font-family="微软雅黑" font-weight="normal" font-style="normal" text-decoration="none" family="微软雅黑" text-anchor="middle" size="13">3</text></g></g><g id="ProcessOnG1079" transform="matrix(1.0,0.0,0.0,1.0,598.5,242.5)" opacity="1.0"><path id="ProcessOnPath1080" d="M0.0 0.0L97.0 0.0L97.0 54.0L0.0 54.0Z" stroke="#323232" stroke-width="2.0" stroke-dasharray="none" opacity="1.0" fill="#ffffff"/><g id="ProcessOnG1081" transform="matrix(1.0,0.0,0.0,1.0,10.0,10.75)"><text id="ProcessOnText1082" fill="#000000" font-size="13" x="37.5" y="13.325" font-family="微软雅黑" font-weight="normal" font-style="normal" text-decoration="none" family="微软雅黑" text-anchor="middle" size="13">used</text><text id="ProcessOnText1083" fill="#000000" font-size="13" x="37.5" y="29.575" font-family="微软雅黑" font-weight="normal" font-style="normal" text-decoration="none" family="微软雅黑" text-anchor="middle" size="13">3</text></g></g><g id="ProcessOnG1084" transform="matrix(1.0,0.0,0.0,1.0,598.5,106.5)" opacity="1.0"><path id="ProcessOnPath1085" d="M0.0 0.0L97.0 0.0L97.0 28.0L0.0 28.0Z" stroke="#323232" stroke-width="2.0" stroke-dasharray="none" opacity="1.0" fill="#ffffff"/><g id="ProcessOnG1086" transform="matrix(1.0,0.0,0.0,1.0,10.0,5.875)"><text id="ProcessOnText1087" fill="#000000" font-size="13" x="37.5" y="13.325" font-family="微软雅黑" font-weight="normal" font-style="normal" text-decoration="none" family="微软雅黑" text-anchor="middle" size="13">table</text></g></g><g id="ProcessOnG1088" transform="matrix(1.0,0.0,0.0,1.0,820.5,130.5)" opacity="1.0"><path id="ProcessOnPath1089" d="M0.0 0.0L97.0 0.0L97.0 28.0L0.0 28.0Z" stroke="#323232" stroke-width="2.0" stroke-dasharray="none" opacity="1.0" fill="#ffffff"/><g id="ProcessOnG1090" transform="matrix(1.0,0.0,0.0,1.0,10.0,5.875)"><text id="ProcessOnText1091" fill="#000000" font-size="13" x="37.5" y="13.325" font-family="微软雅黑" font-weight="normal" font-style="normal" text-decoration="none" family="微软雅黑" text-anchor="middle" size="13">table[0]</text></g></g><g id="ProcessOnG1092" transform="matrix(1.0,0.0,0.0,1.0,820.5,158.5)" opacity="1.0"><path id="ProcessOnPath1093" d="M0.0 0.0L97.0 0.0L97.0 28.0L0.0 28.0Z" stroke="#323232" stroke-width="2.0" stroke-dasharray="none" opacity="1.0" fill="#ffffff"/><g id="ProcessOnG1094" transform="matrix(1.0,0.0,0.0,1.0,10.0,5.875)"><text id="ProcessOnText1095" fill="#000000" font-size="13" x="37.5" y="13.325" font-family="微软雅黑" font-weight="normal" font-style="normal" text-decoration="none" family="微软雅黑" text-anchor="middle" size="13">table[1]</text></g></g><g id="ProcessOnG1096" transform="matrix(1.0,0.0,0.0,1.0,820.5,186.5)" opacity="1.0"><path id="ProcessOnPath1097" d="M0.0 0.0L97.0 0.0L97.0 28.0L0.0 28.0Z" stroke="#323232" stroke-width="2.0" stroke-dasharray="none" opacity="1.0" fill="#ffffff"/><g id="ProcessOnG1098" transform="matrix(1.0,0.0,0.0,1.0,10.0,5.875)"><text id="ProcessOnText1099" fill="#000000" font-size="13" x="37.5" y="13.325" font-family="微软雅黑" font-weight="normal" font-style="normal" text-decoration="none" family="微软雅黑" text-anchor="middle" size="13">table[2]</text></g></g><g id="ProcessOnG1100" transform="matrix(1.0,0.0,0.0,1.0,820.5,214.5)" opacity="1.0"><path id="ProcessOnPath1101" d="M0.0 0.0L97.0 0.0L97.0 28.0L0.0 28.0Z" stroke="#323232" stroke-width="2.0" stroke-dasharray="none" opacity="1.0" fill="#ffffff"/><g id="ProcessOnG1102" transform="matrix(1.0,0.0,0.0,1.0,10.0,5.875)"><text id="ProcessOnText1103" fill="#000000" font-size="13" x="37.5" y="13.325" font-family="微软雅黑" font-weight="normal" font-style="normal" text-decoration="none" family="微软雅黑" text-anchor="middle" size="13">table[3]</text></g></g><g id="ProcessOnG1104" transform="matrix(1.0,0.0,0.0,1.0,759.5,93.5)" opacity="1.0"><path id="ProcessOnPath1105" d="M0.0 0.0L160.0 0.0L160.0 40.0L0.0 40.0Z" stroke="none" stroke-width="0.0" stroke-dasharray="none" opacity="1.0" fill="none"/><g id="ProcessOnG1106" transform="matrix(1.0,0.0,0.0,1.0,0.0,11.875)"><text id="ProcessOnText1107" fill="#000000" font-size="13" x="79.0" y="13.325" font-family="微软雅黑" font-weight="normal" font-style="normal" text-decoration="none" family="微软雅黑" text-anchor="middle" size="13">dictEntry*[4]</text></g></g><g id="ProcessOnG1108"><path id="ProcessOnPath1109" d="M695.5 120.5C744.4404740475611 120.5 750.0595259524389 185.75 783.7639320225002 185.75" stroke="#323232" stroke-width="2.0" stroke-dasharray="none" fill="none" marker-end="url(#ProcessOnMarker1110)"/></g><g id="ProcessOnG1112"><path id="ProcessOnPath1113" d="M917.5 144.5C959.9603344310899 144.5 953.0396655689101 72.5 980.2639320225002 72.5" stroke="#323232" stroke-width="2.0" stroke-dasharray="none" fill="none" marker-end="url(#ProcessOnMarker1114)"/></g><g id="ProcessOnG1116"><path id="ProcessOnPath1117" d="M917.5 172.5C949.2616120497685 172.5 961.7383879502315 195.5 978.2639320225002 195.5" stroke="#323232" stroke-width="2.0" stroke-dasharray="none" fill="none" marker-end="url(#ProcessOnMarker1118)"/></g><g id="ProcessOnG1120"><path id="ProcessOnPath1121" d="M917.5 200.5C989.8248228480375 200.5 1009.5 282.5 1028.988415104814 323.7254934909529" stroke="#323232" stroke-width="2.0" stroke-dasharray="none" fill="none" marker-end="url(#ProcessOnMarker1122)"/></g><g id="ProcessOnG1124" transform="matrix(1.0,0.0,0.0,1.0,960.5,328.5)" opacity="1.0"><path id="ProcessOnPath1125" d="M0.0 0.0L160.0 0.0L160.0 40.0L0.0 40.0Z" stroke="none" stroke-width="0.0" stroke-dasharray="none" opacity="1.0" fill="none"/><g id="ProcessOnG1126" transform="matrix(1.0,0.0,0.0,1.0,0.0,11.875)"><text id="ProcessOnText1127" fill="#000000" font-size="13" x="79.0" y="13.325" font-family="微软雅黑" font-weight="normal" font-style="normal" text-decoration="none" family="微软雅黑" text-anchor="middle" size="13">null</text></g></g><g id="ProcessOnG1128"><path id="ProcessOnPath1129" d="M917.5 228.5C981.5449841908014 228.5 971.5 345.5 1008.2892247839773 347.6224552759987" stroke="#323232" stroke-width="2.0" stroke-dasharray="none" fill="none" marker-end="url(#ProcessOnMarker1130)"/></g><g id="ProcessOnG1132" transform="matrix(1.0,0.0,0.0,1.0,276.5,165.5)" opacity="1.0"><path id="ProcessOnPath1133" d="M0.0 0.0L97.0 0.0L97.0 28.0L0.0 28.0Z" stroke="#323232" stroke-width="2.0" stroke-dasharray="none" opacity="1.0" fill="#ffffff"/><g id="ProcessOnG1134" transform="matrix(1.0,0.0,0.0,1.0,10.0,5.875)"><text id="ProcessOnText1135" fill="#000000" font-size="13" x="37.5" y="13.325" font-family="微软雅黑" font-weight="normal" font-style="normal" text-decoration="none" family="微软雅黑" text-anchor="middle" size="13">type</text></g></g><g id="ProcessOnG1136" transform="matrix(1.0,0.0,0.0,1.0,276.5,193.5)" opacity="1.0"><path id="ProcessOnPath1137" d="M0.0 0.0L97.0 0.0L97.0 28.0L0.0 28.0Z" stroke="#323232" stroke-width="2.0" stroke-dasharray="none" opacity="1.0" fill="#ffffff"/><g id="ProcessOnG1138" transform="matrix(1.0,0.0,0.0,1.0,10.0,5.875)"><text id="ProcessOnText1139" fill="#000000" font-size="13" x="37.5" y="13.325" font-family="微软雅黑" font-weight="normal" font-style="normal" text-decoration="none" family="微软雅黑" text-anchor="middle" size="13">private</text></g></g><g id="ProcessOnG1140" transform="matrix(1.0,0.0,0.0,1.0,276.5,221.5)" opacity="1.0"><path id="ProcessOnPath1141" d="M0.0 0.0L97.0 0.0L97.0 28.0L0.0 28.0Z" stroke="#323232" stroke-width="2.0" stroke-dasharray="none" opacity="1.0" fill="#ffffff"/><g id="ProcessOnG1142" transform="matrix(1.0,0.0,0.0,1.0,10.0,5.875)"><text id="ProcessOnText1143" fill="#000000" font-size="13" x="37.5" y="13.325" font-family="微软雅黑" font-weight="normal" font-style="normal" text-decoration="none" family="微软雅黑" text-anchor="middle" size="13">ht[2]</text></g></g><g id="ProcessOnG1144" transform="matrix(1.0,0.0,0.0,1.0,517.5,70.5)" opacity="1.0"><path id="ProcessOnPath1145" d="M0.0 0.0L160.0 0.0L160.0 40.0L0.0 40.0Z" stroke="none" stroke-width="0.0" stroke-dasharray="none" opacity="1.0" fill="none"/><g id="ProcessOnG1146" transform="matrix(1.0,0.0,0.0,1.0,0.0,11.875)"><text id="ProcessOnText1147" fill="#000000" font-size="13" x="79.0" y="13.325" font-family="微软雅黑" font-weight="normal" font-style="normal" text-decoration="none" family="微软雅黑" text-anchor="middle" size="13">dictht</text></g></g><g id="ProcessOnG1148" transform="matrix(1.0,0.0,0.0,1.0,276.5,249.5)" opacity="1.0"><path id="ProcessOnPath1149" d="M0.0 0.0L97.0 0.0L97.0 28.0L0.0 28.0Z" stroke="#323232" stroke-width="2.0" stroke-dasharray="none" opacity="1.0" fill="#ffffff"/><g id="ProcessOnG1150" transform="matrix(1.0,0.0,0.0,1.0,10.0,5.875)"><text id="ProcessOnText1151" fill="#000000" font-size="13" x="37.5" y="13.325" font-family="微软雅黑" font-weight="normal" font-style="normal" text-decoration="none" family="微软雅黑" text-anchor="middle" size="13">rehashidx</text></g></g><g id="ProcessOnG1152" transform="matrix(1.0,0.0,0.0,1.0,276.5,277.5)" opacity="1.0"><path id="ProcessOnPath1153" d="M0.0 0.0L97.0 0.0L97.0 28.0L0.0 28.0Z" stroke="#323232" stroke-width="2.0" stroke-dasharray="none" opacity="1.0" fill="#ffffff"/><g id="ProcessOnG1154" transform="matrix(1.0,0.0,0.0,1.0,10.0,5.875)"><text id="ProcessOnText1155" fill="#000000" font-size="13" x="37.5" y="13.325" font-family="微软雅黑" font-weight="normal" font-style="normal" text-decoration="none" family="微软雅黑" text-anchor="middle" size="13">iterators</text></g></g><g id="ProcessOnG1156" transform="matrix(1.0,0.0,0.0,1.0,574.75,342.5)" opacity="1.0"><path id="ProcessOnPath1157" d="M0.0 0.0L141.0 0.0L141.0 232.0L0.0 232.0Z" stroke="#323232" stroke-width="2.0" stroke-dasharray="10.0 4.0" opacity="1.0" fill="#ffffff"/></g><g id="ProcessOnG1158" transform="matrix(1.0,0.0,0.0,1.0,596.75,396.5)" opacity="1.0"><path id="ProcessOnPath1159" d="M0.0 0.0L97.0 0.0L97.0 54.0L0.0 54.0Z" stroke="#323232" stroke-width="2.0" stroke-dasharray="none" opacity="1.0" fill="#ffffff"/><g id="ProcessOnG1160" transform="matrix(1.0,0.0,0.0,1.0,10.0,10.75)"><text id="ProcessOnText1161" fill="#000000" font-size="13" x="37.5" y="13.325" font-family="微软雅黑" font-weight="normal" font-style="normal" text-decoration="none" family="微软雅黑" text-anchor="middle" size="13">size</text><text id="ProcessOnText1162" fill="#000000" font-size="13" x="37.5" y="29.575" font-family="微软雅黑" font-weight="normal" font-style="normal" text-decoration="none" family="微软雅黑" text-anchor="middle" size="13">0</text></g></g><g id="ProcessOnG1163" transform="matrix(1.0,0.0,0.0,1.0,596.75,450.5)" opacity="1.0"><path id="ProcessOnPath1164" d="M0.0 0.0L97.0 0.0L97.0 54.0L0.0 54.0Z" stroke="#323232" stroke-width="2.0" stroke-dasharray="none" opacity="1.0" fill="#ffffff"/><g id="ProcessOnG1165" transform="matrix(1.0,0.0,0.0,1.0,10.0,10.75)"><text id="ProcessOnText1166" fill="#000000" font-size="13" x="37.5" y="13.325" font-family="微软雅黑" font-weight="normal" font-style="normal" text-decoration="none" family="微软雅黑" text-anchor="middle" size="13">sizemask</text><text id="ProcessOnText1167" fill="#000000" font-size="13" x="37.5" y="29.575" font-family="微软雅黑" font-weight="normal" font-style="normal" text-decoration="none" family="微软雅黑" text-anchor="middle" size="13">0</text></g></g><g id="ProcessOnG1168" transform="matrix(1.0,0.0,0.0,1.0,596.75,368.5)" opacity="1.0"><path id="ProcessOnPath1169" d="M0.0 0.0L97.0 0.0L97.0 28.0L0.0 28.0Z" stroke="#323232" stroke-width="2.0" stroke-dasharray="none" opacity="1.0" fill="#ffffff"/><g id="ProcessOnG1170" transform="matrix(1.0,0.0,0.0,1.0,10.0,5.875)"><text id="ProcessOnText1171" fill="#000000" font-size="13" x="37.5" y="13.325" font-family="微软雅黑" font-weight="normal" font-style="normal" text-decoration="none" family="微软雅黑" text-anchor="middle" size="13">table</text></g></g><g id="ProcessOnG1172"><path id="ProcessOnPath1173" d="M693.75 382.5C717.25 382.5 729.0 382.5 737.2639320225002 382.5" stroke="#323232" stroke-width="2.0" stroke-dasharray="none" fill="none" marker-end="url(#ProcessOnMarker1174)"/></g><g id="ProcessOnG1176" transform="matrix(1.0,0.0,0.0,1.0,515.75,332.5)" opacity="1.0"><path id="ProcessOnPath1177" d="M0.0 0.0L160.0 0.0L160.0 40.0L0.0 40.0Z" stroke="none" stroke-width="0.0" stroke-dasharray="none" opacity="1.0" fill="none"/><g id="ProcessOnG1178" transform="matrix(1.0,0.0,0.0,1.0,0.0,11.875)"><text id="ProcessOnText1179" fill="#000000" font-size="13" x="79.0" y="13.325" font-family="微软雅黑" font-weight="normal" font-style="normal" text-decoration="none" family="微软雅黑" text-anchor="middle" size="13">dictht</text></g></g><g id="ProcessOnG1180" transform="matrix(1.0,0.0,0.0,1.0,688.75,362.5)" opacity="1.0"><path id="ProcessOnPath1181" d="M0.0 0.0L160.0 0.0L160.0 40.0L0.0 40.0Z" stroke="none" stroke-width="0.0" stroke-dasharray="none" opacity="1.0" fill="none"/><g id="ProcessOnG1182" transform="matrix(1.0,0.0,0.0,1.0,0.0,11.875)"><text id="ProcessOnText1183" fill="#000000" font-size="13" x="79.0" y="13.325" font-family="微软雅黑" font-weight="normal" font-style="normal" text-decoration="none" family="微软雅黑" text-anchor="middle" size="13">null</text></g></g><g id="ProcessOnG1184"><path id="ProcessOnPath1185" d="M373.5 235.5C456.18494421598166 235.5 493.81505578401834 196.5 561.2639320225002 196.5" stroke="#323232" stroke-width="2.0" stroke-dasharray="none" fill="none" marker-end="url(#ProcessOnMarker1186)"/></g><g id="ProcessOnG1188"><path id="ProcessOnPath1189" d="M559.5139320225002 458.5C454.5963899834882 458.5 493.6536100165118 235.5 373.5 235.5" stroke="#323232" stroke-width="2.0" stroke-dasharray="none" fill="none" marker-start="url(#ProcessOnMarker1190)"/></g><g id="ProcessOnG1192" transform="matrix(1.0,0.0,0.0,1.0,596.75,504.5)" opacity="1.0"><path id="ProcessOnPath1193" d="M0.0 0.0L97.0 0.0L97.0 54.0L0.0 54.0Z" stroke="#323232" stroke-width="2.0" stroke-dasharray="none" opacity="1.0" fill="#ffffff"/><g id="ProcessOnG1194" transform="matrix(1.0,0.0,0.0,1.0,10.0,10.75)"><text id="ProcessOnText1195" fill="#000000" font-size="13" x="37.5" y="13.325" font-family="微软雅黑" font-weight="normal" font-style="normal" text-decoration="none" family="微软雅黑" text-anchor="middle" size="13">used</text><text id="ProcessOnText1196" fill="#000000" font-size="13" x="37.5" y="29.575" font-family="微软雅黑" font-weight="normal" font-style="normal" text-decoration="none" family="微软雅黑" text-anchor="middle" size="13">0</text></g></g><g id="ProcessOnG1197" transform="matrix(1.0,0.0,0.0,1.0,1279.5,75.5)" opacity="1.0"><path id="ProcessOnPath1198" d="M0.0 0.0L160.0 0.0L160.0 40.0L0.0 40.0Z" stroke="none" stroke-width="0.0" stroke-dasharray="none" opacity="1.0" fill="none"/><g id="ProcessOnG1199" transform="matrix(1.0,0.0,0.0,1.0,0.0,11.875)"><text id="ProcessOnText1200" fill="#000000" font-size="13" x="79.0" y="13.325" font-family="微软雅黑" font-weight="normal" font-style="normal" text-decoration="none" family="微软雅黑" text-anchor="middle" size="13">null</text></g></g><g id="ProcessOnG1201"><path id="ProcessOnPath1202" d="M1270.5 85.5C1301.0790778147411 85.5 1315.8 92.7 1330.9528080700106 95.10839333563082" stroke="#323232" stroke-width="2.0" stroke-dasharray="none" fill="none" marker-end="url(#ProcessOnMarker1203)"/></g></g></g></svg>