<svg xmlns="http://www.w3.org/2000/svg" xmlns:xlink="http://www.w3.org/1999/xlink" id="processonSvg1000" viewBox="275.0 125.48792617264314 999.0 510.11444948935195" width="999.0" height="510.11444948935195"><defs id="ProcessOnDefs1001"><marker id="ProcessOnMarker1031" markerUnits="userSpaceOnUse" orient="auto" markerWidth="16.23606797749979" markerHeight="10.550836550532098" viewBox="-1.0 -1.3763819204711736 16.23606797749979 10.550836550532098" refX="-1.0" refY="3.8990363547948754"><path id="ProcessOnPath1032" d="M12.0 3.8990363547948754L0.0 7.798072709589751V0.0Z" stroke="#323232" stroke-width="2.0" fill="#323232" transform="matrix(1.0,0.0,0.0,1.0,0.0,0.0)"/></marker><marker id="ProcessOnMarker1035" markerUnits="userSpaceOnUse" orient="auto" markerWidth="16.23606797749979" markerHeight="10.550836550532098" viewBox="-1.0 -1.3763819204711736 16.23606797749979 10.550836550532098" refX="-1.0" refY="3.8990363547948754"><path id="ProcessOnPath1036" d="M12.0 3.8990363547948754L0.0 7.798072709589751V0.0Z" stroke="#323232" stroke-width="2.0" fill="#323232" transform="matrix(1.0,0.0,0.0,1.0,0.0,0.0)"/></marker><marker id="ProcessOnMarker1099" markerUnits="userSpaceOnUse" orient="auto" markerWidth="16.23606797749979" markerHeight="10.550836550532098" viewBox="-1.0 -1.3763819204711736 16.23606797749979 10.550836550532098" refX="-1.0" refY="3.8990363547948754"><path id="ProcessOnPath1100" d="M12.0 3.8990363547948754L0.0 7.798072709589751V0.0Z" stroke="#323232" stroke-width="2.0" fill="#323232" transform="matrix(1.0,0.0,0.0,1.0,0.0,0.0)"/></marker><marker id="ProcessOnMarker1103" markerUnits="userSpaceOnUse" orient="auto" markerWidth="16.23606797749979" markerHeight="10.550836550532098" viewBox="-1.0 -1.3763819204711736 16.23606797749979 10.550836550532098" refX="-1.0" refY="3.8990363547948754"><path id="ProcessOnPath1104" d="M12.0 3.8990363547948754L0.0 7.798072709589751V0.0Z" stroke="#323232" stroke-width="2.0" fill="#323232" transform="matrix(1.0,0.0,0.0,1.0,0.0,0.0)"/></marker><marker id="ProcessOnMarker1107" markerUnits="userSpaceOnUse" orient="auto" markerWidth="16.23606797749979" markerHeight="10.550836550532098" viewBox="-1.0 -1.3763819204711736 16.23606797749979 10.550836550532098" refX="-1.0" refY="3.8990363547948754"><path id="ProcessOnPath1108" d="M12.0 3.8990363547948754L0.0 7.798072709589751V0.0Z" stroke="#323232" stroke-width="2.0" fill="#323232" transform="matrix(1.0,0.0,0.0,1.0,0.0,0.0)"/></marker><marker id="ProcessOnMarker1111" markerUnits="userSpaceOnUse" orient="auto" markerWidth="16.23606797749979" markerHeight="10.550836550532098" viewBox="-1.0 -1.3763819204711736 16.23606797749979 10.550836550532098" refX="-1.0" refY="3.8990363547948754"><path id="ProcessOnPath1112" d="M12.0 3.8990363547948754L0.0 7.798072709589751V0.0Z" stroke="#323232" stroke-width="2.0" fill="#323232" transform="matrix(1.0,0.0,0.0,1.0,0.0,0.0)"/></marker><marker id="ProcessOnMarker1123" markerUnits="userSpaceOnUse" orient="auto" markerWidth="16.23606797749979" markerHeight="10.550836550532098" viewBox="-1.0 -1.3763819204711736 16.23606797749979 10.550836550532098" refX="-1.0" refY="3.8990363547948754"><path id="ProcessOnPath1124" d="M12.0 3.8990363547948754L0.0 7.798072709589751V0.0Z" stroke="#323232" stroke-width="2.0" fill="#323232" transform="matrix(1.0,0.0,0.0,1.0,0.0,0.0)"/></marker><marker id="ProcessOnMarker1127" markerUnits="userSpaceOnUse" orient="auto" markerWidth="16.23606797749979" markerHeight="10.550836550532098" viewBox="-1.0 -1.3763819204711736 16.23606797749979 10.550836550532098" refX="-1.0" refY="3.8990363547948754"><path id="ProcessOnPath1128" d="M12.0 3.8990363547948754L0.0 7.798072709589751V0.0Z" stroke="#323232" stroke-width="2.0" fill="#323232" transform="matrix(1.0,0.0,0.0,1.0,0.0,0.0)"/></marker><marker id="ProcessOnMarker1131" markerUnits="userSpaceOnUse" orient="auto" markerWidth="16.23606797749979" markerHeight="10.550836550532098" viewBox="-1.0 -1.3763819204711736 16.23606797749979 10.550836550532098" refX="-1.0" refY="3.8990363547948754"><path id="ProcessOnPath1132" d="M12.0 3.8990363547948754L0.0 7.798072709589751V0.0Z" stroke="#323232" stroke-width="2.0" fill="#323232" transform="matrix(1.0,0.0,0.0,1.0,0.0,0.0)"/></marker><marker id="ProcessOnMarker1135" markerUnits="userSpaceOnUse" orient="auto" markerWidth="16.23606797749979" markerHeight="10.550836550532098" viewBox="-1.0 -1.3763819204711736 16.23606797749979 10.550836550532098" refX="-1.0" refY="3.8990363547948754"><path id="ProcessOnPath1136" d="M12.0 3.8990363547948754L0.0 7.798072709589751V0.0Z" stroke="#323232" stroke-width="2.0" fill="#323232" transform="matrix(1.0,0.0,0.0,1.0,0.0,0.0)"/></marker></defs><g id="ProcessOnG1002"><path id="ProcessOnPath1003" d="M275.0 125.48792617264314H1274.0V635.6023756619951H275.0V125.48792617264314Z" fill="none"/><g id="ProcessOnG1004"><g id="ProcessOnG1005" transform="matrix(1.0,0.0,0.0,1.0,648.5,210.48792617264314)" opacity="1.0"><path id="ProcessOnPath1006" d="M0.0 0.0L119.0 0.0L119.0 161.5L0.0 161.5Z" stroke="#323232" stroke-width="2.0" stroke-dasharray="10.0 4.0" opacity="1.0" fill="#ffffff"/></g><g id="ProcessOnG1007" transform="matrix(1.0,0.0,0.0,1.0,357.0,199.48792617264314)" opacity="1.0"><path id="ProcessOnPath1008" d="M0.0 0.0L152.0 0.0L152.0 288.0L0.0 288.0Z" stroke="#323232" stroke-width="2.0" stroke-dasharray="10.0 4.0" opacity="1.0" fill="#ffffff"/></g><g id="ProcessOnG1009" transform="matrix(1.0,0.0,0.0,1.0,383.0,249.48792617264314)" opacity="1.0"><path id="ProcessOnPath1010" d="M0.0 0.0L100.0 0.0L100.0 35.0L0.0 35.0Z" stroke="#323232" stroke-width="2.0" stroke-dasharray="none" opacity="1.0" fill="#ffffff"/><g id="ProcessOnG1011" transform="matrix(1.0,0.0,0.0,1.0,10.0,9.375)"><text id="ProcessOnText1012" fill="#000000" font-size="13" x="39.0" y="13.325" font-family="微软雅黑" font-weight="normal" font-style="normal" text-decoration="none" family="微软雅黑" text-anchor="middle" size="13">head</text></g></g><g id="ProcessOnG1013" transform="matrix(1.0,0.0,0.0,1.0,383.0,284.48792617264314)" opacity="1.0"><path id="ProcessOnPath1014" d="M0.0 0.0L100.0 0.0L100.0 35.0L0.0 35.0Z" stroke="#323232" stroke-width="2.0" stroke-dasharray="none" opacity="1.0" fill="#ffffff"/><g id="ProcessOnG1015" transform="matrix(1.0,0.0,0.0,1.0,10.0,9.375)"><text id="ProcessOnText1016" fill="#000000" font-size="13" x="39.0" y="13.325" font-family="微软雅黑" font-weight="normal" font-style="normal" text-decoration="none" family="微软雅黑" text-anchor="middle" size="13">tail</text></g></g><g id="ProcessOnG1017" transform="matrix(1.0,0.0,0.0,1.0,383.0,319.48792617264314)" opacity="1.0"><path id="ProcessOnPath1018" d="M0.0 0.0L100.0 0.0L100.0 35.0L0.0 35.0Z" stroke="#323232" stroke-width="2.0" stroke-dasharray="none" opacity="1.0" fill="#ffffff"/><g id="ProcessOnG1019" transform="matrix(1.0,0.0,0.0,1.0,10.0,9.375)"><text id="ProcessOnText1020" fill="#000000" font-size="13" x="39.0" y="13.325" font-family="微软雅黑" font-weight="normal" font-style="normal" text-decoration="none" family="微软雅黑" text-anchor="middle" size="13">dup</text></g></g><g id="ProcessOnG1021" transform="matrix(1.0,0.0,0.0,1.0,383.0,354.48792617264314)" opacity="1.0"><path id="ProcessOnPath1022" d="M0.0 0.0L100.0 0.0L100.0 35.0L0.0 35.0Z" stroke="#323232" stroke-width="2.0" stroke-dasharray="none" opacity="1.0" fill="#ffffff"/><g id="ProcessOnG1023" transform="matrix(1.0,0.0,0.0,1.0,10.0,9.375)"><text id="ProcessOnText1024" fill="#000000" font-size="13" x="39.0" y="13.325" font-family="微软雅黑" font-weight="normal" font-style="normal" text-decoration="none" family="微软雅黑" text-anchor="middle" size="13">free</text></g></g><g id="ProcessOnG1025" transform="matrix(1.0,0.0,0.0,1.0,383.0,389.48792617264314)" opacity="1.0"><path id="ProcessOnPath1026" d="M0.0 0.0L100.0 0.0L100.0 35.0L0.0 35.0Z" stroke="#323232" stroke-width="2.0" stroke-dasharray="none" opacity="1.0" fill="#ffffff"/><g id="ProcessOnG1027" transform="matrix(1.0,0.0,0.0,1.0,10.0,9.375)"><text id="ProcessOnText1028" fill="#000000" font-size="13" x="39.0" y="13.325" font-family="微软雅黑" font-weight="normal" font-style="normal" text-decoration="none" family="微软雅黑" text-anchor="middle" size="13">match</text></g></g><g id="ProcessOnG1029"><path id="ProcessOnPath1030" d="M483.0 371.98792617264314C504.0038091783372 371.98792617264314 513.6 379.48792617264314 519.2019324636807 380.86094883531" stroke="#323232" stroke-width="2.0" stroke-dasharray="none" fill="none" marker-end="url(#ProcessOnMarker1031)"/></g><g id="ProcessOnG1033"><path id="ProcessOnPath1034" d="M483.0 406.98792617264314C502.67434878210713 406.98792617264314 511.2 415.68792617264313 515.4410389309811 416.99633180028627" stroke="#323232" stroke-width="2.0" stroke-dasharray="none" fill="none" marker-end="url(#ProcessOnMarker1035)"/></g><g id="ProcessOnG1037" transform="matrix(1.0,0.0,0.0,1.0,295.0,193.48792617264314)" opacity="1.0"><path id="ProcessOnPath1038" d="M0.0 0.0L160.0 0.0L160.0 40.0L0.0 40.0Z" stroke="none" stroke-width="0.0" stroke-dasharray="none" opacity="1.0" fill="none"/><g id="ProcessOnG1039" transform="matrix(1.0,0.0,0.0,1.0,0.0,11.875)"><text id="ProcessOnText1040" fill="#000000" font-size="13" x="79.0" y="13.325" font-family="微软雅黑" font-weight="normal" font-style="normal" text-decoration="none" family="微软雅黑" text-anchor="middle" size="13">List</text></g></g><g id="ProcessOnG1041" transform="matrix(1.0,0.0,0.0,1.0,658.0,249.48792617264314)" opacity="1.0"><path id="ProcessOnPath1042" d="M0.0 0.0L100.0 0.0L100.0 35.0L0.0 35.0Z" stroke="#323232" stroke-width="2.0" stroke-dasharray="none" opacity="1.0" fill="#ffffff"/><g id="ProcessOnG1043" transform="matrix(1.0,0.0,0.0,1.0,10.0,9.375)"><text id="ProcessOnText1044" fill="#000000" font-size="13" x="39.0" y="13.325" font-family="微软雅黑" font-weight="normal" font-style="normal" text-decoration="none" family="微软雅黑" text-anchor="middle" size="13">pre</text></g></g><g id="ProcessOnG1045" transform="matrix(1.0,0.0,0.0,1.0,658.0,284.48792617264314)" opacity="1.0"><path id="ProcessOnPath1046" d="M0.0 0.0L100.0 0.0L100.0 35.0L0.0 35.0Z" stroke="#323232" stroke-width="2.0" stroke-dasharray="none" opacity="1.0" fill="#ffffff"/><g id="ProcessOnG1047" transform="matrix(1.0,0.0,0.0,1.0,10.0,9.375)"><text id="ProcessOnText1048" fill="#000000" font-size="13" x="39.0" y="13.325" font-family="微软雅黑" font-weight="normal" font-style="normal" text-decoration="none" family="微软雅黑" text-anchor="middle" size="13">next</text></g></g><g id="ProcessOnG1049" transform="matrix(1.0,0.0,0.0,1.0,658.0,319.48792617264314)" opacity="1.0"><path id="ProcessOnPath1050" d="M0.0 0.0L100.0 0.0L100.0 35.0L0.0 35.0Z" stroke="#323232" stroke-width="2.0" stroke-dasharray="none" opacity="1.0" fill="#ffffff"/><g id="ProcessOnG1051" transform="matrix(1.0,0.0,0.0,1.0,10.0,9.375)"><text id="ProcessOnText1052" fill="#000000" font-size="13" x="39.0" y="13.325" font-family="微软雅黑" font-weight="normal" font-style="normal" text-decoration="none" family="微软雅黑" text-anchor="middle" size="13">value</text></g></g><g id="ProcessOnG1053" transform="matrix(1.0,0.0,0.0,1.0,383.0,424.48792617264314)" opacity="1.0"><path id="ProcessOnPath1054" d="M0.0 0.0L100.0 0.0L100.0 35.0L0.0 35.0Z" stroke="#323232" stroke-width="2.0" stroke-dasharray="none" opacity="1.0" fill="#ffffff"/><g id="ProcessOnG1055" transform="matrix(1.0,0.0,0.0,1.0,10.0,9.375)"><text id="ProcessOnText1056" fill="#000000" font-size="13" x="39.0" y="13.325" font-family="微软雅黑" font-weight="normal" font-style="normal" text-decoration="none" family="微软雅黑" text-anchor="middle" size="13">len 3</text></g></g><g id="ProcessOnG1057" transform="matrix(1.0,0.0,0.0,1.0,601.0,203.48792617264314)" opacity="1.0"><path id="ProcessOnPath1058" d="M0.0 0.0L160.0 0.0L160.0 40.0L0.0 40.0Z" stroke="none" stroke-width="0.0" stroke-dasharray="none" opacity="1.0" fill="none"/><g id="ProcessOnG1059" transform="matrix(1.0,0.0,0.0,1.0,0.0,11.875)"><text id="ProcessOnText1060" fill="#000000" font-size="13" x="79.0" y="13.325" font-family="微软雅黑" font-weight="normal" font-style="normal" text-decoration="none" family="微软雅黑" text-anchor="middle" size="13">ListNode</text></g></g><g id="ProcessOnG1061" transform="matrix(1.0,0.0,0.0,1.0,842.5,210.48792617264314)" opacity="1.0"><path id="ProcessOnPath1062" d="M0.0 0.0L119.0 0.0L119.0 161.5L0.0 161.5Z" stroke="#323232" stroke-width="2.0" stroke-dasharray="10.0 4.0" opacity="1.0" fill="#ffffff"/></g><g id="ProcessOnG1063" transform="matrix(1.0,0.0,0.0,1.0,852.0,249.48792617264314)" opacity="1.0"><path id="ProcessOnPath1064" d="M0.0 0.0L100.0 0.0L100.0 35.0L0.0 35.0Z" stroke="#323232" stroke-width="2.0" stroke-dasharray="none" opacity="1.0" fill="#ffffff"/><g id="ProcessOnG1065" transform="matrix(1.0,0.0,0.0,1.0,10.0,9.375)"><text id="ProcessOnText1066" fill="#000000" font-size="13" x="39.0" y="13.325" font-family="微软雅黑" font-weight="normal" font-style="normal" text-decoration="none" family="微软雅黑" text-anchor="middle" size="13">pre</text></g></g><g id="ProcessOnG1067" transform="matrix(1.0,0.0,0.0,1.0,852.0,284.48792617264314)" opacity="1.0"><path id="ProcessOnPath1068" d="M0.0 0.0L100.0 0.0L100.0 35.0L0.0 35.0Z" stroke="#323232" stroke-width="2.0" stroke-dasharray="none" opacity="1.0" fill="#ffffff"/><g id="ProcessOnG1069" transform="matrix(1.0,0.0,0.0,1.0,10.0,9.375)"><text id="ProcessOnText1070" fill="#000000" font-size="13" x="39.0" y="13.325" font-family="微软雅黑" font-weight="normal" font-style="normal" text-decoration="none" family="微软雅黑" text-anchor="middle" size="13">next</text></g></g><g id="ProcessOnG1071" transform="matrix(1.0,0.0,0.0,1.0,852.0,319.48792617264314)" opacity="1.0"><path id="ProcessOnPath1072" d="M0.0 0.0L100.0 0.0L100.0 35.0L0.0 35.0Z" stroke="#323232" stroke-width="2.0" stroke-dasharray="none" opacity="1.0" fill="#ffffff"/><g id="ProcessOnG1073" transform="matrix(1.0,0.0,0.0,1.0,10.0,9.375)"><text id="ProcessOnText1074" fill="#000000" font-size="13" x="39.0" y="13.325" font-family="微软雅黑" font-weight="normal" font-style="normal" text-decoration="none" family="微软雅黑" text-anchor="middle" size="13">value</text></g></g><g id="ProcessOnG1075" transform="matrix(1.0,0.0,0.0,1.0,1028.5,210.48792617264314)" opacity="1.0"><path id="ProcessOnPath1076" d="M0.0 0.0L119.0 0.0L119.0 161.5L0.0 161.5Z" stroke="#323232" stroke-width="2.0" stroke-dasharray="10.0 4.0" opacity="1.0" fill="#ffffff"/></g><g id="ProcessOnG1077" transform="matrix(1.0,0.0,0.0,1.0,1038.0,249.48792617264314)" opacity="1.0"><path id="ProcessOnPath1078" d="M0.0 0.0L100.0 0.0L100.0 35.0L0.0 35.0Z" stroke="#323232" stroke-width="2.0" stroke-dasharray="none" opacity="1.0" fill="#ffffff"/><g id="ProcessOnG1079" transform="matrix(1.0,0.0,0.0,1.0,10.0,9.375)"><text id="ProcessOnText1080" fill="#000000" font-size="13" x="39.0" y="13.325" font-family="微软雅黑" font-weight="normal" font-style="normal" text-decoration="none" family="微软雅黑" text-anchor="middle" size="13">pre</text></g></g><g id="ProcessOnG1081" transform="matrix(1.0,0.0,0.0,1.0,1038.0,284.48792617264314)" opacity="1.0"><path id="ProcessOnPath1082" d="M0.0 0.0L100.0 0.0L100.0 35.0L0.0 35.0Z" stroke="#323232" stroke-width="2.0" stroke-dasharray="none" opacity="1.0" fill="#ffffff"/><g id="ProcessOnG1083" transform="matrix(1.0,0.0,0.0,1.0,10.0,9.375)"><text id="ProcessOnText1084" fill="#000000" font-size="13" x="39.0" y="13.325" font-family="微软雅黑" font-weight="normal" font-style="normal" text-decoration="none" family="微软雅黑" text-anchor="middle" size="13">next</text></g></g><g id="ProcessOnG1085" transform="matrix(1.0,0.0,0.0,1.0,1038.0,319.48792617264314)" opacity="1.0"><path id="ProcessOnPath1086" d="M0.0 0.0L100.0 0.0L100.0 35.0L0.0 35.0Z" stroke="#323232" stroke-width="2.0" stroke-dasharray="none" opacity="1.0" fill="#ffffff"/><g id="ProcessOnG1087" transform="matrix(1.0,0.0,0.0,1.0,10.0,9.375)"><text id="ProcessOnText1088" fill="#000000" font-size="13" x="39.0" y="13.325" font-family="微软雅黑" font-weight="normal" font-style="normal" text-decoration="none" family="微软雅黑" text-anchor="middle" size="13">value</text></g></g><g id="ProcessOnG1089" transform="matrix(1.0,0.0,0.0,1.0,797.0,203.48792617264314)" opacity="1.0"><path id="ProcessOnPath1090" d="M0.0 0.0L160.0 0.0L160.0 40.0L0.0 40.0Z" stroke="none" stroke-width="0.0" stroke-dasharray="none" opacity="1.0" fill="none"/><g id="ProcessOnG1091" transform="matrix(1.0,0.0,0.0,1.0,0.0,11.875)"><text id="ProcessOnText1092" fill="#000000" font-size="13" x="79.0" y="13.325" font-family="微软雅黑" font-weight="normal" font-style="normal" text-decoration="none" family="微软雅黑" text-anchor="middle" size="13">ListNode</text></g></g><g id="ProcessOnG1093" transform="matrix(1.0,0.0,0.0,1.0,983.0,203.48792617264314)" opacity="1.0"><path id="ProcessOnPath1094" d="M0.0 0.0L160.0 0.0L160.0 40.0L0.0 40.0Z" stroke="none" stroke-width="0.0" stroke-dasharray="none" opacity="1.0" fill="none"/><g id="ProcessOnG1095" transform="matrix(1.0,0.0,0.0,1.0,0.0,11.875)"><text id="ProcessOnText1096" fill="#000000" font-size="13" x="79.0" y="13.325" font-family="微软雅黑" font-weight="normal" font-style="normal" text-decoration="none" family="微软雅黑" text-anchor="middle" size="13">ListNode</text></g></g><g id="ProcessOnG1097"><path id="ProcessOnPath1098" d="M483.0 266.98792617264314C549.9068755809146 266.98792617264314 581.5931244190854 291.23792617264314 633.2639320225002 291.23792617264314" stroke="#323232" stroke-width="2.0" stroke-dasharray="none" fill="none" marker-end="url(#ProcessOnMarker1099)"/></g><g id="ProcessOnG1101"><path id="ProcessOnPath1102" d="M758.0 301.98792617264314C792.0005882302057 301.98792617264314 808.9994117697943 301.48792617264314 827.7639320225002 301.48792617264314" stroke="#323232" stroke-width="2.0" stroke-dasharray="none" fill="none" marker-end="url(#ProcessOnMarker1103)"/></g><g id="ProcessOnG1105"><path id="ProcessOnPath1106" d="M952.0 301.98792617264314C982.8006493438045 301.98792617264314 998.1993506561955 302.48792617264314 1013.7639320225002 302.48792617264314" stroke="#323232" stroke-width="2.0" stroke-dasharray="none" fill="none" marker-end="url(#ProcessOnMarker1107)"/></g><g id="ProcessOnG1109"><path id="ProcessOnPath1110" d="M1138.0 301.98792617264314C1192.9213983798663 301.98792617264314 1159.6 381.48792617264314 1170.0052113502552 419.78488461455504" stroke="#323232" stroke-width="2.0" stroke-dasharray="none" fill="none" marker-end="url(#ProcessOnMarker1111)"/></g><g id="ProcessOnG1113" transform="matrix(1.0,0.0,0.0,1.0,518.0,145.48792617264314)" opacity="1.0"><path id="ProcessOnPath1114" d="M0.0 0.0L160.0 0.0L160.0 40.0L0.0 40.0Z" stroke="none" stroke-width="0.0" stroke-dasharray="none" opacity="1.0" fill="none"/><g id="ProcessOnG1115" transform="matrix(1.0,0.0,0.0,1.0,0.0,11.875)"><text id="ProcessOnText1116" fill="#000000" font-size="13" x="79.0" y="13.325" font-family="微软雅黑" font-weight="normal" font-style="normal" text-decoration="none" family="微软雅黑" text-anchor="middle" size="13">null</text></g></g><g id="ProcessOnG1117" transform="matrix(1.0,0.0,0.0,1.0,1094.0,427.48792617264314)" opacity="1.0"><path id="ProcessOnPath1118" d="M0.0 0.0L160.0 0.0L160.0 40.0L0.0 40.0Z" stroke="none" stroke-width="0.0" stroke-dasharray="none" opacity="1.0" fill="none"/><g id="ProcessOnG1119" transform="matrix(1.0,0.0,0.0,1.0,0.0,11.875)"><text id="ProcessOnText1120" fill="#000000" font-size="13" x="79.0" y="13.325" font-family="微软雅黑" font-weight="normal" font-style="normal" text-decoration="none" family="微软雅黑" text-anchor="middle" size="13">null</text></g></g><g id="ProcessOnG1121"><path id="ProcessOnPath1122" d="M483.0 301.98792617264314C768.0 432.48792617264314 1088.0 615.6023756619951 1088.0 387.2239941501429" stroke="#323232" stroke-width="2.0" stroke-dasharray="none" fill="none" marker-end="url(#ProcessOnMarker1123)"/></g><g id="ProcessOnG1125"><path id="ProcessOnPath1126" d="M483.0 336.98792617264314C506.4682764599363 336.98792617264314 516.6 347.48792617264314 524.4574781714958 349.94338810123554" stroke="#323232" stroke-width="2.0" stroke-dasharray="none" fill="none" marker-end="url(#ProcessOnMarker1127)"/></g><g id="ProcessOnG1129"><path id="ProcessOnPath1130" d="M852.0 266.98792617264314C817.9994117697943 266.98792617264314 801.0005882302057 266.48792617264314 782.2360679774998 266.48792617264314" stroke="#323232" stroke-width="2.0" stroke-dasharray="none" fill="none" marker-end="url(#ProcessOnMarker1131)"/></g><g id="ProcessOnG1133"><path id="ProcessOnPath1134" d="M1038.0 266.98792617264314C1007.1993506561955 266.98792617264314 991.8006493438045 266.48792617264314 976.2360679774998 266.48792617264314" stroke="#323232" stroke-width="2.0" stroke-dasharray="none" fill="none" marker-end="url(#ProcessOnMarker1135)"/></g></g></g></svg>