<svg xmlns="http://www.w3.org/2000/svg" xmlns:xlink="http://www.w3.org/1999/xlink" id="processonSvg1000" viewBox="201.0 154.0 1012.0 411.0" width="1012.0" height="411.0"><defs id="ProcessOnDefs1001"/><g id="ProcessOnG1002"><path id="ProcessOnPath1003" d="M201.0 154.0H1213.0V565.0H201.0V154.0Z" fill="none"/><g id="ProcessOnG1004"><g id="ProcessOnG1005" transform="matrix(1.0,0.0,0.0,1.0,375.0,174.0)" opacity="1.0"><path id="ProcessOnPath1006" d="M0.0 0.0L818.0 0.0L818.0 371.0L0.0 371.0Z" stroke="#323232" stroke-width="2.0" stroke-dasharray="10.0 4.0" opacity="1.0" fill="#ffffff"/></g><g id="ProcessOnG1007" transform="matrix(1.0,0.0,0.0,1.0,683.0,268.0)" opacity="1.0"><path id="ProcessOnPath1008" d="M0.0 0.0L306.0 0.0L306.0 169.0L0.0 169.0Z" stroke="#323232" stroke-width="2.0" stroke-dasharray="10.0 4.0 2.0 4.0" opacity="1.0" fill="#ffffff"/></g><g id="ProcessOnG1009" transform="matrix(1.0,0.0,0.0,1.0,221.0,321.0)" opacity="1.0"><path id="ProcessOnPath1010" d="M0.0 0.0L154.0 0.0L154.0 51.0L0.0 51.0Z" stroke="#323232" stroke-width="2.0" stroke-dasharray="none" opacity="1.0" fill="#ffffff"/><g id="ProcessOnG1011" transform="matrix(1.0,0.0,0.0,1.0,10.0,17.375)"><text id="ProcessOnText1012" fill="#000000" font-size="13" x="66.0" y="13.325" font-family="微软雅黑" font-weight="normal" font-style="normal" text-decoration="none" family="微软雅黑" text-anchor="middle" size="13">26</text></g></g><g id="ProcessOnG1013" transform="matrix(1.0,0.0,0.0,1.0,375.0,321.0)" opacity="1.0"><path id="ProcessOnPath1014" d="M0.0 0.0L154.0 0.0L154.0 51.0L0.0 51.0Z" stroke="#323232" stroke-width="2.0" stroke-dasharray="none" opacity="1.0" fill="#ffffff"/><g id="ProcessOnG1015" transform="matrix(1.0,0.0,0.0,1.0,10.0,17.375)"><text id="ProcessOnText1016" fill="#000000" font-size="13" x="66.0" y="13.325" font-family="微软雅黑" font-weight="normal" font-style="normal" text-decoration="none" family="微软雅黑" text-anchor="middle" size="13">5</text></g></g><g id="ProcessOnG1017" transform="matrix(1.0,0.0,0.0,1.0,529.0,321.0)" opacity="1.0"><path id="ProcessOnPath1018" d="M0.0 0.0L154.0 0.0L154.0 51.0L0.0 51.0Z" stroke="#323232" stroke-width="2.0" stroke-dasharray="none" opacity="1.0" fill="#ffffff"/><g id="ProcessOnG1019" transform="matrix(1.0,0.0,0.0,1.0,10.0,17.375)"><text id="ProcessOnText1020" fill="#000000" font-size="13" x="66.0" y="13.325" font-family="微软雅黑" font-weight="normal" font-style="normal" text-decoration="none" family="微软雅黑" text-anchor="middle" size="13">4</text></g></g><g id="ProcessOnG1021" transform="matrix(1.0,0.0,0.0,1.0,683.0,321.0)" opacity="1.0"><path id="ProcessOnPath1022" d="M0.0 0.0L51.0 0.0L51.0 51.0L0.0 51.0Z" stroke="#323232" stroke-width="2.0" stroke-dasharray="none" opacity="1.0" fill="#ffffff"/><g id="ProcessOnG1023" transform="matrix(1.0,0.0,0.0,1.0,10.0,17.375)"><text id="ProcessOnText1024" fill="#000000" font-size="13" x="14.5" y="13.325" font-family="微软雅黑" font-weight="normal" font-style="normal" text-decoration="none" family="微软雅黑" text-anchor="middle" size="13">R</text></g></g><g id="ProcessOnG1025" transform="matrix(1.0,0.0,0.0,1.0,734.0,321.0)" opacity="1.0"><path id="ProcessOnPath1026" d="M0.0 0.0L51.0 0.0L51.0 51.0L0.0 51.0Z" stroke="#323232" stroke-width="2.0" stroke-dasharray="none" opacity="1.0" fill="#ffffff"/><g id="ProcessOnG1027" transform="matrix(1.0,0.0,0.0,1.0,10.0,17.375)"><text id="ProcessOnText1028" fill="#000000" font-size="13" x="14.5" y="13.325" font-family="微软雅黑" font-weight="normal" font-style="normal" text-decoration="none" family="微软雅黑" text-anchor="middle" size="13">e</text></g></g><g id="ProcessOnG1029" transform="matrix(1.0,0.0,0.0,1.0,785.0,321.0)" opacity="1.0"><path id="ProcessOnPath1030" d="M0.0 0.0L51.0 0.0L51.0 51.0L0.0 51.0Z" stroke="#323232" stroke-width="2.0" stroke-dasharray="none" opacity="1.0" fill="#ffffff"/><g id="ProcessOnG1031" transform="matrix(1.0,0.0,0.0,1.0,10.0,17.375)"><text id="ProcessOnText1032" fill="#000000" font-size="13" x="14.5" y="13.325" font-family="微软雅黑" font-weight="normal" font-style="normal" text-decoration="none" family="微软雅黑" text-anchor="middle" size="13">d</text></g></g><g id="ProcessOnG1033" transform="matrix(1.0,0.0,0.0,1.0,836.0,321.0)" opacity="1.0"><path id="ProcessOnPath1034" d="M0.0 0.0L51.0 0.0L51.0 51.0L0.0 51.0Z" stroke="#323232" stroke-width="2.0" stroke-dasharray="none" opacity="1.0" fill="#ffffff"/><g id="ProcessOnG1035" transform="matrix(1.0,0.0,0.0,1.0,10.0,17.375)"><text id="ProcessOnText1036" fill="#000000" font-size="13" x="14.5" y="13.325" font-family="微软雅黑" font-weight="normal" font-style="normal" text-decoration="none" family="微软雅黑" text-anchor="middle" size="13">i</text></g></g><g id="ProcessOnG1037" transform="matrix(1.0,0.0,0.0,1.0,887.0,321.0)" opacity="1.0"><path id="ProcessOnPath1038" d="M0.0 0.0L51.0 0.0L51.0 51.0L0.0 51.0Z" stroke="#323232" stroke-width="2.0" stroke-dasharray="none" opacity="1.0" fill="#ffffff"/><g id="ProcessOnG1039" transform="matrix(1.0,0.0,0.0,1.0,10.0,17.375)"><text id="ProcessOnText1040" fill="#000000" font-size="13" x="14.5" y="13.325" font-family="微软雅黑" font-weight="normal" font-style="normal" text-decoration="none" family="微软雅黑" text-anchor="middle" size="13">s</text></g></g><g id="ProcessOnG1041" transform="matrix(1.0,0.0,0.0,1.0,938.0,321.0)" opacity="1.0"><path id="ProcessOnPath1042" d="M0.0 0.0L51.0 0.0L51.0 51.0L0.0 51.0Z" stroke="#323232" stroke-width="2.0" stroke-dasharray="none" opacity="1.0" fill="#ffffff"/><g id="ProcessOnG1043" transform="matrix(1.0,0.0,0.0,1.0,10.0,17.375)"><text id="ProcessOnText1044" fill="#000000" font-size="13" x="14.5" y="13.325" font-family="微软雅黑" font-weight="normal" font-style="normal" text-decoration="none" family="微软雅黑" text-anchor="middle" size="13">\0</text></g></g><g id="ProcessOnG1045" transform="matrix(1.0,0.0,0.0,1.0,336.0,180.0)" opacity="1.0"><path id="ProcessOnPath1046" d="M0.0 0.0L160.0 0.0L160.0 40.0L0.0 40.0Z" stroke="none" stroke-width="0.0" stroke-dasharray="none" opacity="1.0" fill="none"/><g id="ProcessOnG1047" transform="matrix(1.0,0.0,0.0,1.0,0.0,7.5)"><text id="ProcessOnText1048" fill="#000000" font-size="20" x="79.0" y="20.5" font-family="微软雅黑" font-weight="bold" font-style="normal" text-decoration="none" family="微软雅黑" text-anchor="middle" size="20">sdshdr</text></g></g><g id="ProcessOnG1049" transform="matrix(1.0,0.0,0.0,1.0,625.0,264.0)" opacity="1.0"><path id="ProcessOnPath1050" d="M0.0 0.0L160.0 0.0L160.0 40.0L0.0 40.0Z" stroke="none" stroke-width="0.0" stroke-dasharray="none" opacity="1.0" fill="none"/><g id="ProcessOnG1051" transform="matrix(1.0,0.0,0.0,1.0,0.0,11.875)"><text id="ProcessOnText1052" fill="#000000" font-size="13" x="79.0" y="13.325" font-family="微软雅黑" font-weight="normal" font-style="normal" text-decoration="none" family="微软雅黑" text-anchor="middle" size="13">buf</text></g></g><g id="ProcessOnG1053" transform="matrix(1.0,0.0,0.0,1.0,369.0,372.0)" opacity="1.0"><path id="ProcessOnPath1054" d="M0.0 0.0L160.0 0.0L160.0 40.0L0.0 40.0Z" stroke="none" stroke-width="0.0" stroke-dasharray="none" opacity="1.0" fill="none"/><g id="ProcessOnG1055" transform="matrix(1.0,0.0,0.0,1.0,0.0,10.625)"><text id="ProcessOnText1056" fill="#000000" font-size="15" x="79.0" y="15.375" font-family="微软雅黑" font-weight="normal" font-style="normal" text-decoration="none" family="微软雅黑" text-anchor="middle" size="15">len</text></g></g><g id="ProcessOnG1057" transform="matrix(1.0,0.0,0.0,1.0,989.0,321.0)" opacity="1.0"><path id="ProcessOnPath1058" d="M0.0 0.0L51.0 0.0L51.0 51.0L0.0 51.0Z" stroke="#323232" stroke-width="2.0" stroke-dasharray="none" opacity="1.0" fill="#ffffff"/><g id="ProcessOnG1059" transform="matrix(1.0,0.0,0.0,1.0,10.0,17.375)"><text id="ProcessOnText1060" fill="#000000" font-size="13" x="14.5" y="13.325" font-family="微软雅黑" font-weight="normal" font-style="normal" text-decoration="none" family="微软雅黑" text-anchor="middle" size="13">*</text></g></g><g id="ProcessOnG1061" transform="matrix(1.0,0.0,0.0,1.0,1040.0,321.0)" opacity="1.0"><path id="ProcessOnPath1062" d="M0.0 0.0L51.0 0.0L51.0 51.0L0.0 51.0Z" stroke="#323232" stroke-width="2.0" stroke-dasharray="none" opacity="1.0" fill="#ffffff"/><g id="ProcessOnG1063" transform="matrix(1.0,0.0,0.0,1.0,10.0,17.375)"><text id="ProcessOnText1064" fill="#000000" font-size="13" x="14.5" y="13.325" font-family="微软雅黑" font-weight="normal" font-style="normal" text-decoration="none" family="微软雅黑" text-anchor="middle" size="13">*</text></g></g><g id="ProcessOnG1065" transform="matrix(1.0,0.0,0.0,1.0,1091.0,321.0)" opacity="1.0"><path id="ProcessOnPath1066" d="M0.0 0.0L51.0 0.0L51.0 51.0L0.0 51.0Z" stroke="#323232" stroke-width="2.0" stroke-dasharray="none" opacity="1.0" fill="#ffffff"/><g id="ProcessOnG1067" transform="matrix(1.0,0.0,0.0,1.0,10.0,17.375)"><text id="ProcessOnText1068" fill="#000000" font-size="13" x="14.5" y="13.325" font-family="微软雅黑" font-weight="normal" font-style="normal" text-decoration="none" family="微软雅黑" text-anchor="middle" size="13">*</text></g></g><g id="ProcessOnG1069" transform="matrix(1.0,0.0,0.0,1.0,1142.0,321.0)" opacity="1.0"><path id="ProcessOnPath1070" d="M0.0 0.0L51.0 0.0L51.0 51.0L0.0 51.0Z" stroke="#323232" stroke-width="2.0" stroke-dasharray="none" opacity="1.0" fill="#ffffff"/><g id="ProcessOnG1071" transform="matrix(1.0,0.0,0.0,1.0,10.0,17.375)"><text id="ProcessOnText1072" fill="#000000" font-size="13" x="14.5" y="13.325" font-family="微软雅黑" font-weight="normal" font-style="normal" text-decoration="none" family="微软雅黑" text-anchor="middle" size="13">*</text></g></g><g id="ProcessOnG1073" transform="matrix(1.0,0.0,0.0,1.0,523.0,372.0)" opacity="1.0"><path id="ProcessOnPath1074" d="M0.0 0.0L160.0 0.0L160.0 40.0L0.0 40.0Z" stroke="none" stroke-width="0.0" stroke-dasharray="none" opacity="1.0" fill="none"/><g id="ProcessOnG1075" transform="matrix(1.0,0.0,0.0,1.0,0.0,10.625)"><text id="ProcessOnText1076" fill="#000000" font-size="15" x="79.0" y="15.375" font-family="微软雅黑" font-weight="normal" font-style="normal" text-decoration="none" family="微软雅黑" text-anchor="middle" size="15">free</text></g></g><g id="ProcessOnG1077" transform="matrix(1.0,0.0,0.0,1.0,221.0,375.0)" opacity="1.0"><path id="ProcessOnPath1078" d="M0.0 0.0L160.0 0.0L160.0 40.0L0.0 40.0Z" stroke="none" stroke-width="0.0" stroke-dasharray="none" opacity="1.0" fill="none"/><g id="ProcessOnG1079" transform="matrix(1.0,0.0,0.0,1.0,0.0,11.875)"><text id="ProcessOnText1080" fill="#000000" font-size="13" x="79.0" y="13.325" font-family="微软雅黑" font-weight="normal" font-style="normal" text-decoration="none" family="微软雅黑" text-anchor="middle" size="13">PREFIX_SIZE</text></g></g></g></g></svg>